<?xml version="1.0" encoding="UTF-8" standalone="no"?>
<!-- Created with Inkscape (http://www.inkscape.org/) -->
<!-- ClipArt by Arvin61r58 (http://openclipart.org/user-detail/Arvin61r58) -->

<svg
   xmlns:dc="http://purl.org/dc/elements/1.1/"
   xmlns:cc="http://creativecommons.org/ns#"
   xmlns:rdf="http://www.w3.org/1999/02/22-rdf-syntax-ns#"
   xmlns:svg="http://www.w3.org/2000/svg"
   xmlns="http://www.w3.org/2000/svg"
   version="1.1"
   id="svg2"
   viewBox="0 0 320 320.00002"
   height="320"
   width="320">
  <title
     id="title4170">Alternating Tile Pattern</title>
  <defs
     id="defs4" />
  <metadata
     id="metadata7">
    <rdf:RDF>
      <cc:Work
         rdf:about="">
        <dc:format>image/svg+xml</dc:format>
        <dc:type
           rdf:resource="http://purl.org/dc/dcmitype/StillImage" />
        <dc:title>Alternating Tile Pattern</dc:title>
        <dc:creator>
          <cc:Agent>
            <dc:title>Arvin61r58</dc:title>
          </cc:Agent>
        </dc:creator>
        <dc:publisher>
          <cc:Agent>
            <dc:title>Openclipart.org</dc:title>
          </cc:Agent>
        </dc:publisher>
        <dc:identifier>https://openclipart.org/</dc:identifier>
        <dc:source>https://openclipart.org/user-detail/Arvin61r58</dc:source>
        <dc:description>alternating black and white tile pattern</dc:description>
        <dc:subject>
          <rdf:Bag>
            <rdf:li>pattern</rdf:li>
            <rdf:li>tile</rdf:li>
            <rdf:li>seamless</rdf:li>
            <rdf:li>tileable</rdf:li>
          </rdf:Bag>
        </dc:subject>
        <cc:license
           rdf:resource="http://creativecommons.org/publicdomain/zero/1.0/" />
      </cc:Work>
      <cc:License
         rdf:about="http://creativecommons.org/publicdomain/zero/1.0/">
        <cc:permits
           rdf:resource="http://creativecommons.org/ns#Reproduction" />
        <cc:permits
           rdf:resource="http://creativecommons.org/ns#Distribution" />
        <cc:permits
           rdf:resource="http://creativecommons.org/ns#DerivativeWorks" />
      </cc:License>
    </rdf:RDF>
  </metadata>
  <g
     transform="translate(-212.04725,-366.18202)"
     id="layer1">
    <path
       id="path4147"
       d="m 220.22692,366.18202 -1.26562,1.27343 36.84767,36.86314 36.84571,36.86117 9.99999,-9.99995 9.99999,-9.99801 -36.23242,-36.24987 c -7.00275,-7.00581 -13.2737,-13.18981 -18.95508,-18.74991 l -37.24024,0 z m 51.28126,0 c 3.64847,3.69461 7.40764,7.49175 11.46875,11.55463 19.76118,19.76993 36.22748,35.94519 36.59179,35.94519 0.36432,0 5.00397,-4.36718 10.31055,-9.70505 l 9.64844,-9.70505 -28.10156,-28.08972 -39.91797,0 z m 53.65821,0 21.23828,21.24796 9.99999,-9.99995 10.00002,-9.99801 -1.25001,-1.25 -39.98828,0 z m 55.02539,0 -1.25196,1.25194 36.84964,36.86509 36.84765,36.86315 9.71874,-9.66208 9.71874,-9.66012 -36.88476,-36.88463 -18.77343,-18.77335 -36.22462,0 z m 49.98439,0 11.24804,11.25189 c 19.92824,19.93703 36.78518,36.24793 37.46095,36.24793 1.64509,0 19.41211,-17.71154 19.41211,-19.35151 0,-0.59186 -11.5878,-12.65564 -26.9375,-28.14831 l -41.1836,0 z m 54.99025,0 21.23828,21.24796 9.99999,-9.99995 10.00001,-9.99801 -1.25001,-1.25 -39.98827,0 z m -112.51176,7.50193 -36.84568,36.86116 -36.84767,36.86314 9.32423,9.38667 c 5.12824,5.16267 9.90412,9.38671 10.61328,9.38671 0.70914,0 17.59517,-16.31283 37.52343,-36.24986 l 36.23242,-36.24792 -9.99999,-9.99995 -10.00002,-9.99995 z m -159.95899,1.24803 c -0.0658,0 -0.3145,0.18428 -0.64843,0.45509 l 0,38.91388 20.59179,-20.58973 -9.32812,-9.39062 c -5.12968,-5.16413 -9.9061,-9.38862 -10.61524,-9.38862 z m 319.3516,0.45509 c -3.26399,2.64705 -18.78964,17.70337 -36.86329,35.785 l -36.22461,36.23814 9.9668,10.02339 9.96484,10.02535 36.87306,-36.87485 16.2832,-16.28315 0,-38.91388 z m -132.52151,25.20693 -36.8535,36.83773 -36.85546,36.83971 9.64841,9.70504 c 5.3066,5.33787 9.94631,9.70504 10.31057,9.70504 0.36425,0 17.11758,-16.46237 37.22852,-36.58189 l 36.56444,-36.57994 -10.02149,-9.96286 -10.02149,-9.96283 z m -160.00392,0.004 -27.4746,27.46278 0,41.24203 10.84179,-10.83785 c 28.4488,-28.43641 36.2648,-36.92117 35.41994,-38.44908 -0.59623,-1.07823 -5.06735,-5.88835 -9.93555,-10.68941 l -8.85158,-8.72869 z m 292.52543,27.46278 -9.37891,9.37495 -36.85351,36.83582 10.28711,10.33979 10.28515,10.33979 25.66016,-25.64832 0,-41.24203 z m -265.00199,0.0132 -36.86328,36.8475 -18.13476,18.1269 0,37.5604 0.59374,0.59763 36.88478,-36.8846 36.88476,-36.88268 -9.68359,-9.68355 -9.68165,-9.6816 z m 159.4004,0.60742 c -0.70913,0 -17.58949,16.30711 -37.51171,36.23812 l -36.22266,36.23815 9.32421,9.38668 c 5.12822,5.16264 9.90415,9.38669 10.61329,9.38669 0.70916,0 17.58952,-16.30713 37.51172,-36.23816 l 36.22267,-36.23812 -9.32423,-9.38668 c -5.12819,-5.16265 -9.90412,-9.38668 -10.61329,-9.38668 z m -133.79687,26.25013 c -0.70915,0 -5.48503,4.22402 -10.6133,9.38668 l -9.32421,9.38668 36.84765,36.86119 36.84572,36.86314 9.99999,-9.99996 10.00002,-9.99997 -36.23242,-36.24986 c -19.92826,-19.93693 -36.8143,-36.2478 -37.52345,-36.2478 z m 160.00002,0 c -0.70915,0 -5.48506,4.22402 -10.6133,9.38668 l -9.32421,9.38668 36.84765,36.86119 36.84573,36.86314 9.99999,-9.99996 10.00001,-9.99997 -36.23244,-36.24986 c -19.92823,-19.93738 -36.81428,-36.24825 -37.52343,-36.24825 z m -186.84962,25.64443 -10.30471,10.30466 -10.30468,10.30269 36.23438,36.24984 c 19.92822,19.93703 36.78517,36.24986 37.46094,36.24986 1.64512,0 19.41212,-17.71153 19.41212,-19.35147 0,-0.70914 -16.31094,-17.59515 -36.24805,-37.5233 l -36.25,-36.23194 z m 160.02149,0.0199 -9.38673,9.32418 c -5.16268,5.12822 -9.38672,9.89729 -9.38672,10.59762 0,0.70032 16.16853,17.4487 35.92969,37.2186 19.7612,19.76993 36.22746,35.94516 36.5918,35.94516 0.36432,0 5.00397,-4.36717 10.31055,-9.70502 l 9.64843,-9.70505 -36.85349,-36.83776 -36.85353,-36.83773 z m 106.22657,2.45311 -18.73047,18.72259 9.66211,9.71674 9.06836,9.12108 0,-37.56041 z m -293.74222,25.02138 -9.68163,9.68357 -9.68361,9.68159 36.84963,36.86314 36.84765,36.86507 9.71874,-9.66205 9.71875,-9.66208 -36.88476,-36.88461 -36.88477,-36.88463 z m 160.59376,0.61328 c -0.70914,0 -5.48502,4.22403 -10.61326,9.3867 l -9.32423,9.38667 36.84767,36.86118 36.84569,36.86313 10.00002,-9.99995 9.99999,-9.99995 -36.23242,-36.24987 C 416.494,524.99468 399.60797,508.68382 398.89881,508.68382 Z m -186.24414,25.00186 -0.60743,0.60741 0,40.00963 20.60741,-20.61711 -9.99999,-9.99995 -9.99999,-9.99998 z m 319.3926,0.60741 -36.2383,36.25573 -36.84763,36.86313 9.32422,9.38474 c 5.12824,5.16267 9.90412,9.38668 10.61326,9.38668 0.70916,0 17.5952,-16.31138 37.52346,-36.2479 l 15.62499,-15.63275 0,-40.00963 z m -159.35158,0.64061 c -0.70917,0 -17.58897,16.30855 -37.51174,36.24013 l -36.2246,36.23812 9.9668,10.02535 9.96483,10.02341 36.87307,-36.87487 36.87499,-36.87288 -9.32811,-9.39061 c -5.12967,-5.1641 -9.90609,-9.38865 -10.61524,-9.38865 z m -133.16994,25.66204 -27.47851,27.46864 0,39.96077 c 3.52526,-3.50632 7.09097,-7.05421 10.95704,-10.92183 l 36.56444,-36.58189 -10.02149,-9.96286 -10.02148,-9.96283 z m 159.99611,0.007 -36.85351,36.83579 -36.85352,36.83774 10.28711,10.33981 10.28514,10.33785 36.50198,-36.48618 c 28.44879,-28.43641 36.26478,-36.91925 35.41993,-38.44713 -0.59624,-1.07824 -5.06736,-5.88836 -9.93556,-10.6894 l -8.85157,-8.72848 z m 132.52541,27.46277 -9.37499,9.37105 -36.85549,36.83777 9.64844,9.70502 c 5.3066,5.3379 9.9463,9.70504 10.31054,9.70504 0.29425,0 11.45859,-10.92475 26.2715,-25.65809 l 0,-39.96079 z m -105.00197,0.011 -36.86329,36.84944 -36.86521,36.84754 9.66209,9.71871 9.66211,9.71871 36.88476,-36.88463 36.88478,-36.88462 -9.6836,-9.68161 -9.68164,-9.68354 z m -160.59963,0.6074 c -0.70914,0 -17.5895,16.30711 -37.51172,36.23816 l -16.88671,16.89447 0,37.82015 c 0.27434,0.17699 0.4958,0.29686 0.60156,0.29686 0.70914,0 17.58952,-16.30711 37.51173,-36.23814 l 36.22264,-36.23812 -9.32421,-9.38668 c -5.1282,-5.16265 -9.90413,-9.3867 -10.61329,-9.3867 z m 26.20314,26.2499 c -0.70915,0 -5.48503,4.22402 -10.6133,9.38669 l -9.32421,9.38668 36.84765,36.86313 15.60548,15.61129 39.98827,0 -34.98044,-34.99792 c -19.92826,-19.93696 -36.8143,-36.2498 -37.52345,-36.2498 z m 160.00002,0 c -0.70915,0 -5.48506,4.22402 -10.6133,9.38669 l -9.32421,9.38668 36.84765,36.86313 15.60549,15.61129 39.98827,0 -34.98047,-34.99792 c -19.92823,-19.93703 -36.81428,-36.24987 -37.52343,-36.24987 z m -26.8496,25.64249 -10.3047,10.30464 -10.30471,10.30466 24.98441,24.996 41.18357,0 c -3.04086,-3.06922 -6.01217,-6.07613 -9.3086,-9.37106 l -36.24997,-36.23417 z m -159.97855,0.0221 -9.38673,9.32418 c -5.16268,5.12822 -9.38671,9.8973 -9.38671,10.5976 0,0.55638 10.3551,11.37973 24.45898,25.66202 l 39.91798,0 -8.75,-8.74607 -36.85352,-36.83773 z m 266.22659,1.21874 -19.33594,19.34368 9.32421,9.38668 c 4.3634,4.39268 8.4465,8.07996 10.01173,9.08982 l 0,-37.82018 z m -133.7422,26.25575 -9.68165,9.68161 -8.42968,8.4277 36.2207,0 -18.10937,-18.10931 z m -159.40626,0.61137 c -0.70916,0 -5.48505,4.22397 -10.61328,9.38668 l -8.05665,8.1113 37.23631,0 C 246.97977,675.91967 239.35873,668.6833 238.89881,668.6833 Z"
       style="fill:#000000" />
  </g>
</svg>
